<?xml version="1.0" encoding="UTF-8" standalone="no"?>
<svg
   version="1.1"
   viewBox="0 0 200 200"
   id="svg12"
   sodipodi:docname="dpkit-logo.svg"
   inkscape:version="1.4.2 (1:1.4.2+202505120737+ebf0e940d0)"
   xmlns:inkscape="http://www.inkscape.org/namespaces/inkscape"
   xmlns:sodipodi="http://sodipodi.sourceforge.net/DTD/sodipodi-0.dtd"
   xmlns="http://www.w3.org/2000/svg"
   xmlns:svg="http://www.w3.org/2000/svg">
  <defs
     id="defs12" />
  <sodipodi:namedview
     id="namedview12"
     pagecolor="#ffffff"
     bordercolor="#000000"
     borderopacity="0.25"
     inkscape:showpageshadow="2"
     inkscape:pageopacity="0.0"
     inkscape:pagecheckerboard="0"
     inkscape:deskcolor="#d1d1d1"
     inkscape:zoom="2.3207607"
     inkscape:cx="218.6783"
     inkscape:cy="49.768164"
     inkscape:window-width="1920"
     inkscape:window-height="1108"
     inkscape:window-x="0"
     inkscape:window-y="53"
     inkscape:window-maximized="1"
     inkscape:current-layer="svg12" />
  <path
     d="m 70.131659,66.313631 c 4.587935,4.179293 7.683923,8.787598 10.7671,14.113135 0.50373,0.85455 1.007461,1.7091 1.526456,2.589546 1.643571,2.791526 3.275958,5.589424 4.90863,8.387337 1.14817,1.953606 2.297288,3.906655 3.447321,5.859167 1.745727,2.964084 3.490898,5.928484 5.233076,8.894644 5.050638,8.59796 10.173418,17.15064 15.318748,25.69231 3.27485,5.45301 6.54644,10.90796 9.81783,16.36306 0.47671,0.79423 0.95341,1.58847 1.44455,2.40676 3.03581,5.05869 6.06518,10.12116 9.08644,15.18856 0.97271,1.62929 1.94748,3.25733 2.92442,4.88408 1.35059,2.24973 2.69311,4.50428 4.03524,6.75906 1.15769,1.9365 1.15769,1.9365 2.33876,3.91213 1.65236,3.09987 1.65236,3.09987 1.65236,5.78508 -12.40291,2.10978 -25.40021,3.84493 -37.59308,0 -8.994846,-7.15843 -13.263261,-18.45954 -17.867591,-28.70615 -3.751214,-8.02423 -8.337817,-15.53594 -12.844606,-23.15215 -1.652207,-2.91839 -3.302564,-5.83782 -4.950873,-8.75842 -2.75795,-4.81257 -5.614,-9.39492 -8.894789,-13.86665 -3.371925,-4.66008 -6.07728,-8.59711 -7.803919,-14.128867 1.642858,-7.436512 5.073189,-12.606173 9.398268,-18.796536 1.55318,-2.620578 3.093464,-5.248883 4.615221,-7.887832 1.139517,-1.850601 2.283262,-3.698655 3.440438,-5.538264 z"
     fill="#6abbfe"
     id="path4"
     style="stroke-width:1.34261" />
  <path
     d="m 58.048171,11.266633 c 9.529098,-0.804566 19.018733,-1.262087 28.582901,-1.03318 2.351058,0.04981 2.351058,0.04981 4.749614,0.100629 5.467438,1.196712 7.383342,3.300608 10.805774,7.645598 1.02485,2.537469 2.04052,5.080423 2.95138,7.661005 2.57691,6.378466 6.43356,12.135788 9.97124,18.016405 1.61543,2.779284 3.22715,5.560722 4.83549,8.34411 3.679,6.322159 7.42925,12.595725 11.22339,18.848981 1.48943,2.466993 2.97786,4.934583 4.46607,7.402299 0.9678,1.597404 1.94084,3.191645 2.91927,4.782557 1.36939,2.227345 2.71951,4.466506 4.0688,6.706083 0.78033,1.278451 1.56067,2.556903 2.36465,3.874097 1.8408,3.93576 2.28366,6.010539 1.67367,10.291493 -1.47897,3.35029 -1.47897,3.35029 -3.52435,6.82318 -1.09034,1.87565 -1.09034,1.87565 -2.20272,3.78919 -0.76843,1.28852 -1.53686,2.57703 -2.32859,3.90459 -0.76842,1.31447 -1.53687,2.62894 -2.32858,3.98324 -1.89622,3.23937 -3.8055,6.47025 -5.72707,9.6946 -4.31911,-3.97975 -7.16667,-8.00569 -10.08533,-13.09044 -0.43684,-0.75428 -0.87369,-1.50853 -1.32377,-2.28564 -0.94207,-1.62783 -1.88051,-3.25776 -2.81567,-4.88955 -2.52475,-4.40366 -5.078,-8.79074 -7.62936,-13.178992 -0.52454,-0.903436 -1.04906,-1.806874 -1.58948,-2.737686 C 101.72705,86.675756 96.18101,77.537528 90.606456,68.411458 81.493429,53.477922 72.515674,38.469449 63.676905,23.371754 62.345487,21.120559 60.972847,18.893805 59.590073,16.673784 58.048171,13.951852 58.048171,13.951852 58.048171,11.266633 Z"
     fill="#0c7de9"
     id="path5"
     style="stroke-width:1.34261" />
  <path
     d="m 25.448913,103.74411 c 13.942512,0.44225 13.942512,0.44225 18.533323,5.16066 3.07417,4.4264 5.107072,9.32411 7.136548,14.29801 3.012307,6.8176 7.049267,13.08656 10.873303,19.47178 1.599151,2.75513 3.195271,5.51202 4.788291,8.27069 4.885561,8.39439 9.958381,16.66867 15.166967,24.86646 4.29563,6.87465 4.29563,6.87465 4.29563,11.33679 -12.392298,2.29221 -25.449055,4.16264 -37.593072,0 -9.3988,-8.02903 -14.197332,-20.28265 -19.187912,-31.35859 C 26.104874,148.4453 21.828949,141.6546 17.602055,134.78673 12.052899,125.5115 6.7813214,116.10917 1.6585633,106.59192 6.1363909,102.11409 19.481295,103.83658 25.448913,103.74411 Z"
     fill="#0e7ee9"
     id="path7"
     style="stroke-width:1.34261" />
  <path
     d="m 113.09516,11.266633 c 33.19101,-3.1360815 33.19101,-3.1360815 41.68451,1.500602 4.22042,4.289817 6.02442,9.803795 8.02026,15.381009 2.52574,6.259584 6.27308,11.865425 9.78964,17.606675 1.48624,2.516911 2.9687,5.036073 4.4474,7.557424 3.03103,5.130334 6.10978,10.227354 9.23043,15.303653 1.1207,1.832332 1.1207,1.832332 2.26403,3.701682 1.42556,2.325733 2.86065,4.645669 4.30644,6.958888 0.63722,1.042427 1.27444,2.084854 1.93098,3.158869 0.56388,0.908837 1.12778,1.817676 1.70875,2.754054 1.20198,2.605896 1.20198,2.605896 1.20198,7.976335 -5.8147,0.510115 -11.62366,0.81767 -17.45392,1.090871 -1.63897,0.146244 -3.27795,0.29249 -4.9666,0.443165 -5.09916,0.179159 -8.96446,0.03289 -13.82994,-1.534036 -4.30147,-4.455824 -6.88852,-9.412318 -9.51225,-14.943703 -2.00843,-4.103472 -4.3988,-7.969478 -6.75115,-11.882268 -0.93286,-1.593204 -1.86298,-3.18801 -2.79044,-4.784358 -8.24482,-14.165711 -16.53222,-28.293123 -25.18837,-42.213208 -4.09175,-6.602429 -4.09175,-6.602429 -4.09175,-8.075654 z"
     fill="#6cbcfe"
     id="path8"
     style="stroke-width:1.34261" />
  <path
     d="m 41.936855,16.637071 c 5.856858,5.034109 9.276721,11.439874 13.090445,18.041318 0.680168,1.13621 1.360335,2.27242 2.061115,3.44306 0.642092,1.105057 1.284186,2.210114 1.945735,3.348657 0.584547,0.999377 1.169093,1.998752 1.771354,3.028411 1.520173,3.611787 1.746677,5.842064 1.270496,9.731626 -1.516991,3.345707 -1.516991,3.345707 -3.629242,6.833673 -0.763243,1.274666 -1.526484,2.549333 -2.312854,3.862626 -0.808241,1.316203 -1.616482,2.632406 -2.449215,3.988494 -0.787471,1.311012 -1.574943,2.622023 -2.386279,3.972761 -1.529843,2.535415 -3.08629,5.055006 -4.671599,7.556113 -2.214886,3.488372 -2.214886,3.488372 -4.060608,8.248396 -5.121617,4.837985 -10.322118,3.944607 -17.149741,3.839025 -1.748015,-0.0675 -3.49603,-0.134995 -5.297015,-0.204538 -1.768783,-0.03635 -3.537567,-0.07269 -5.359949,-0.110135 -4.369186,-0.09499 -8.7339584,-0.227476 -13.1009347,-0.393344 1.944307,-5.137427 4.283086,-9.90448 6.8808745,-14.742484 0.8320378,-1.552336 1.6640772,-3.104673 2.5213272,-4.704051 0.893534,-1.657515 1.7873,-3.314907 2.681286,-4.972178 0.911334,-1.694931 1.822576,-3.389912 2.733733,-5.084939 C 34.414527,28.99178 34.414527,28.99178 41.936855,16.637071 Z"
     fill="#0f7fe9"
     id="path9"
     style="stroke-width:1.34261" />
  <path
     d="m 164.90922,106.4395 c 1.51167,0.007 3.02333,0.0141 4.58081,0.0213 1.63119,0.004 3.26238,0.008 4.94301,0.0134 1.71772,0.0107 3.43544,0.0226 5.20523,0.0341 1.72292,0.007 3.44584,0.0121 5.22097,0.0184 4.27351,0.0159 8.5469,0.038 12.82034,0.0655 -0.7979,5.14641 -2.31452,9.01416 -4.81976,13.5677 -0.71478,1.30918 -1.42956,2.61835 -2.166,3.96718 -1.15265,2.07833 -1.15265,2.07833 -2.32858,4.19861 -0.78403,1.42969 -1.56803,2.85936 -2.3758,4.33236 -2.35904,4.29541 -4.73078,8.58358 -7.10639,12.86984 -0.67,1.21236 -1.34001,2.42473 -2.03031,3.67382 -3.27436,5.92427 -6.56225,11.84076 -9.86438,17.74959 -2.75623,4.93785 -5.49978,9.88276 -8.24445,14.82704 -5.95285,-5.655 -9.9362,-11.98502 -14.18132,-18.96436 -0.80044,-1.20805 -1.6009,-2.41607 -2.42561,-3.66071 -5.33099,-8.86588 -5.33099,-8.86588 -4.12552,-14.3475 1.73906,-3.56258 3.7431,-6.73589 5.96374,-10.01877 1.38651,-2.3741 2.76402,-4.75344 4.13272,-7.13786 1.41439,-2.35092 2.83395,-4.69873 4.2586,-7.04346 0.72689,-1.2089 1.45378,-2.41779 2.2027,-3.66332 6.23257,-10.32268 6.23257,-10.32268 10.34,-10.50257 z"
     fill="#6bbbfe"
     id="path10"
     style="stroke-width:1.34261" />
</svg>
